<?xml version="1.0" encoding="UTF-8"?>
<svg xmlns="http://www.w3.org/2000/svg" version="1.1" viewBox="0 0 1024 1024" width="30" height="30">
  <defs>
    <style>
      .cls-1 {
        fill: #fff;
      }
    </style>
  </defs>
  <!-- Generator: Adobe Illustrator 28.6.0, SVG Export Plug-In . SVG Version: 1.2.0 Build 709)  -->
  <g>
    <g id="Layer_1">
      <g>
        <path class="cls-1" d="M512,14.5C237.24,14.5,14.5,237.24,14.5,512s222.74,497.5,497.5,497.5,497.5-222.74,497.5-497.5S786.76,14.5,512,14.5ZM512.01,963.87c-249.16,0-451.87-202.7-451.87-451.86S262.84,60.13,512.01,60.13s451.86,202.71,451.86,451.87-202.7,451.86-451.86,451.86Z"/>
        <g>
          <path class="cls-1" d="M483.11,532.31c-15.06,0-27.49,5.73-37.29,17.15-9.8,11.44-14.7,26.14-14.7,44.1s4.9,32.89,14.7,43.69c9.8,10.8,22.33,16.2,37.56,16.2,13.61,0,24.91-5.4,33.89-16.2,8.99-10.8,13.48-25.36,13.48-43.69s-4.59-32.66-13.74-44.1c-9.18-11.43-20.46-17.15-33.9-17.15Z"/>
          <path class="cls-1" d="M483.39,472.15c10.71,0,19.24-4.9,25.59-14.7,6.35-9.8,9.53-23.05,9.53-39.75s-3.23-28.61-9.66-37.96-15.01-14.03-25.73-14.03c-12.34,0-22.04,4.54-29.13,13.61-7.08,9.08-10.61,21.88-10.61,38.38s3.63,29.73,10.89,39.61c7.26,9.89,16.96,14.84,29.13,14.84Z"/>
          <path class="cls-1" d="M512.01,85.73c-235.05,0-426.27,191.22-426.27,426.27s191.22,426.26,426.27,426.26,426.26-191.22,426.26-426.26S747.04,85.73,512.01,85.73ZM323.05,707.61h-77.03v-329.65l-72.42,1.91v-59.08l149.45-15.24v402.06ZM572.82,682.84c-23.33,20.33-53.13,30.49-89.43,30.49s-68.78-10.2-93.09-30.63c-24.33-20.41-36.48-48.94-36.48-85.6,0-21.41,5.94-40.43,17.83-57.03,11.89-16.61,28.18-29.35,48.87-38.25-17.06-8.53-30.4-20.36-40.01-35.51-9.63-15.15-14.43-32.54-14.43-52.14,0-34.84,10.84-61.65,32.53-80.43,21.69-18.79,49.85-28.18,84.52-28.18s60.48,9.35,81.27,28.04c20.78,18.69,31.16,45.55,31.16,80.57,0,19.6-4.63,36.99-13.89,52.14-9.25,15.15-21.95,26.99-38.1,35.51,19.78,8.9,35.43,21.64,46.95,38.25,11.53,16.6,17.29,35.61,17.29,57.03,0,36.84-11.66,65.43-34.98,85.74ZM790.51,555.17v112.71h-72.68v-112.71h-86.29v-66.97h86.29v-108.88h72.68v108.88h85.48v66.97h-85.48Z"/>
        </g>
      </g>
    </g>
  </g>
</svg>